<?xml version="1.0" encoding="utf-8"?>
<!-- Generator: Adobe Illustrator 24.0.1, SVG Export Plug-In . SVG Version: 6.00 Build 0)  -->
<svg version="1.1" id="Camada_1" xmlns="http://www.w3.org/2000/svg" xmlns:xlink="http://www.w3.org/1999/xlink" x="0px" y="0px"
	 viewBox="0 0 34.4 50" style="enable-background:new 0 0 34.4 50;" xml:space="preserve">
<style type="text/css">
	.st0{fill:none;}
	.st1{fill:#202020;}
</style>
<line class="st0" x1="27.2" y1="-432" x2="27.2" y2="-433.7"/>
<polygon class="st1" points="32.9,0 32.9,6 26.9,6 26.9,6 20.3,6 20.3,13.9 14.3,10.4 14.3,6 7.7,6 7.7,6.6 1.7,3.1 1.7,3.1 
	1.7,3.1 1.7,0 "/>
<polygon class="st1" points="26.9,7.2 32.9,7.2 32.9,14.4 26.9,17.8 "/>
<polygon class="st1" points="32.9,15.5 32.9,30.5 26.9,34 26.9,25.9 23.3,28 17.3,31.5 11.3,28 1.7,22.4 1.7,15.5 17.3,24.5 "/>
<polygon class="st1" points="32.9,31.6 32.9,41 23.3,46.5 17.3,50 14.3,48.3 14.3,41.3 14.3,41.3 14.3,30.8 17.3,32.6 20.3,30.8 
	20.3,41.3 26.9,37.5 26.9,35.1 "/>
<polygon class="st1" points="13.2,40.6 13.2,47.6 11.3,46.5 1.7,41 1.7,23.6 7.7,27.1 7.7,37.5 "/>
<line class="st0" x1="-198" y1="-456.2" x2="-198" y2="-457.8"/>
<polygon class="st1" points="26.3,18.5 20.3,21.9 17.3,20.2 17.3,20.2 11.3,16.7 7.7,14.7 7.7,17.8 1.7,14.4 1.7,4.3 10.8,9.5 
	10.8,9.5 "/>
<polygon class="st1" points="26.4,16.3 26.4,16.3 26.3,16.3 "/>
<line class="st0" x1="-450.1" y1="-448.8" x2="-450.1" y2="-450.4"/>
</svg>
