<svg id="Layer_1" data-name="Layer 1" xmlns="http://www.w3.org/2000/svg" viewBox="0 0 1590.49 713.1"><defs><style>.cls-1{fill:#0077bd}.cls-2{fill:#80c342}</style></defs><g id="g4591"><path id="path40" class="cls-1" d="M106.94 121.35h24.6v452.3h273.9v24.6h-298.5z"/><path id="path44" class="cls-1" d="M1087.14 457.55c0 78.7 67.8 113.8 130.1 113.8 64.8 0 130.8-28.6 130.8-106.6 0-41.6-18.8-82.6-81.7-108.6-75.7-31.2-169-47.5-169-131.4 0-68.2 60.5-103.4 119.9-103.4 58.1 0 115.6 33.8 115.6 103.4H1311c0-54.6-47.8-82-96.3-82-47.8 0-95.7 27.3-95.7 82 0 65 79.3 80.7 153.2 110.5 76.3 31.2 97.5 77.3 97.5 128.8 0 89.1-68.5 130.7-152.6 130.7-64.8 0-152-36.4-152-137.3l22 .1z"/><path id="path48" class="cls-2" d="M653.94 355.65s-96 81.5-91 143.3 119.3 91 119.3 91-54.9-15.3-54.9-74.2 75.3-111.1 75.3-111.1"/><path id="path50" class="cls-1" d="M910.64 518.35a222 222 0 0 0 16.5-84.1h-66.6a155.39 155.39 0 0 1-3 30.5l-106-108.9-48.9 48.9 125 125.3a155.68 155.68 0 1 1-218-218.9l42.3 42.4 50.8 51 46.6-45.4 2.3-3.4-32.4-38.3s-17-11.7-18.2-12.7c-11.5-9.9-73.1-64.5-73.1-103.2a77 77 0 0 1 153.9-2.5l68.4-.1c-1.4-79-65.9-142.7-145.2-142.7a145.4 145.4 0 0 0-145.4 145.4 143.81 143.81 0 0 0 11.1 55.7 221.86 221.86 0 0 0-88.1 177.1c0 122.9 99.6 222.4 222.4 222.4a221.46 221.46 0 0 0 170.1-79.3l59 59.1 46.6-47.5z"/><path id="line52" class="cls-2" d="M702.64 404.55l-48.8-49"/><path id="path54" class="cls-2" d="M751.54 355.65s98.7-70.5 98.7-154.2a20.08 20.08 0 0 0-.1-2.5h-68.5c0 .9.1 1.7.1 2.5 0 42.5-79 104.8-79 104.8z"/></g><path class="cls-1" d="M1481.45 127.21a41.52 41.52 0 0 1 15.62 16.07 46.58 46.58 0 0 1 5.62 22.85 47.22 47.22 0 0 1-5.62 23 41.37 41.37 0 0 1-15.62 16.19 46.64 46.64 0 0 1-45.23 0 41.3 41.3 0 0 1-15.62-16.19 47.22 47.22 0 0 1-5.62-23 46.58 46.58 0 0 1 5.62-22.85 41.45 41.45 0 0 1 15.62-16.07 46.57 46.57 0 0 1 45.23 0zm-3 72.9a34.49 34.49 0 0 0 13.31-14 42.24 42.24 0 0 0 4.71-20 41.62 41.62 0 0 0-4.71-19.87 34.68 34.68 0 0 0-13.31-13.89 38.16 38.16 0 0 0-19.64-5.05q-16.75 0-27.09 10.91t-10.33 27.9a42.24 42.24 0 0 0 4.7 20 34.78 34.78 0 0 0 13.21 14 37.41 37.41 0 0 0 19.51 5 38.07 38.07 0 0 0 19.66-5zm-3.79-34.56a15.64 15.64 0 0 1-9.88 4.48l14.7 20.44-8.5.22-14.21-20.69h-7.12v20.66h-7.35v-49.1h20.21q7.35 0 11.59 3.67t4.25 10.56a13.45 13.45 0 0 1-3.67 9.76zm-25-1.72h12.17q9.4 0 9.41-8a6.94 6.94 0 0 0-2.52-5.85 11 11 0 0 0-6.89-1.95h-12.17z"/></svg>